<svg xmlns="http://www.w3.org/2000/svg" width="147.83" height="56.547" viewBox="0 0 147.83 56.547"><defs><style>.a,.c{fill:#90132e;}.b{fill:#520c1b;}.c{font-size:10px;font-family:Verdana-Bold, Verdana;font-weight:700;letter-spacing:0.863em;}</style></defs><g transform="translate(-30.651 -104.03)"><path class="a" d="M433.505,220.713a8.971,8.971,0,0,1-3.5,1.838,5.432,5.432,0,0,1-6.351-3.2,10.088,10.088,0,0,1-.058-8.472,6.654,6.654,0,0,1,8.7-3.5c.354.136.7.289,1.176.486V201.59H438.2v20.616h-4.7Zm-.036-6.227v-3.252c0-.242,0-.434-.289-.579a3.773,3.773,0,0,0-5.333,2.562,7.735,7.735,0,0,0,.016,3.51,2.783,2.783,0,0,0,3.369,2.3,5.462,5.462,0,0,0,1.776-.579.752.752,0,0,0,.473-.79c-.03-1.051-.011-2.111-.011-3.171Z" transform="translate(-329.962 -80.543)"/><path class="a" d="M779.394,222.15H774.67V201.52h4.723v7.3c.629-.4,1.141-.743,1.666-1.062a6.535,6.535,0,0,1,3.944-.913,4.543,4.543,0,0,1,4.455,4.529c.2,3.3.043,6.6.077,9.9a1.742,1.742,0,0,1-.081.868h-4.611c-.181-.25-.1-.524-.1-.778-.025-2.651,0-5.3-.068-7.955-.058-2.274-1.125-3.055-3.354-2.573-.145.03-.289.054-.422.1-1.457.434-1.509.509-1.509,2.025Z" transform="translate(-631.028 -80.483)"/><path class="a" d="M12.36,89.076V83.94H26.131v26.02H20.742V89.076Z" transform="translate(21.019 20.09)"/><path class="a" d="M-6.5,321.13v-26h5.433v20.842H7.271v5.158Z" transform="translate(37.151 -160.553)"/><path class="a" d="M916.292,246.989H905.53c-.108,1.841,1.19,3.25,3.233,3.616a8.827,8.827,0,0,0,6.347-1.334.924.924,0,0,1,.941-.189v3.482c0,.289-.2.351-.405.434a15.079,15.079,0,0,1-10.125.451c-3.574-1.125-5.415-4.386-4.856-8.333.578-4.092,3.327-6.573,7.521-6.79a11.583,11.583,0,0,1,3.3.239,5.8,5.8,0,0,1,4.717,5.259,15.884,15.884,0,0,1,.087,3.165Zm-10.848-2.813h6.126c-.153-1.94-.979-2.784-2.716-2.831-2.058-.054-3.153.842-3.411,2.831Z" transform="translate(-738.713 -111.94)"/><path class="a" d="M570.21,246.151a7.684,7.684,0,0,1-.334,2.849,6.822,6.822,0,0,1-5.641,4.853,11.312,11.312,0,0,1-4.658-.1,6.878,6.878,0,0,1-5.434-5.923,10.589,10.589,0,0,1,.133-4.014,6.9,6.9,0,0,1,5.881-5.4,11.9,11.9,0,0,1,4.517.117A6.94,6.94,0,0,1,570.209,245C570.227,245.38,570.21,245.766,570.21,246.151Zm-4.9.114a7.131,7.131,0,0,0-.385-2.768,2.7,2.7,0,0,0-2.832-1.9,2.614,2.614,0,0,0-2.731,1.924,8.088,8.088,0,0,0-.017,5.243,2.671,2.671,0,0,0,2.664,1.931,2.742,2.742,0,0,0,2.873-1.744,6.245,6.245,0,0,0,.422-2.682Z" transform="translate(-442.286 -111.901)"/><path class="a" d="M300.666,241.549c0,2.472-.007,4.9,0,7.331a10.6,10.6,0,0,0,.127,2.3,1.859,1.859,0,0,0,1.909,1.72,5.39,5.39,0,0,0,2.985-.674c.373-.188.331-.476.331-.786V241.53h4.721v14.822h-4.7v-1.527c-.625.405-1.157.761-1.7,1.1a6.414,6.414,0,0,1-5.01.723,4.465,4.465,0,0,1-3.4-4.562c-.066-3.493-.017-6.988-.017-10.529Z" transform="translate(-221.509 -114.706)"/><path class="a" d="M184.537,207.58v16.012h9.085v3.738H179.49V207.58Z" transform="translate(-121.937 -85.666)"/><path class="a" d="M684.818,212.6v4.14h4.435v3.182h-4.43v5.842c0,.362,0,.723.029,1.085a2,2,0,0,0,2.659,2.01c.561-.106,1.111-.277,1.724-.434V231.7a11.987,11.987,0,0,1-6.742-.123,3.608,3.608,0,0,1-2.335-3.36c-.226-2.429-.055-4.866-.1-7.3v-.9a17.761,17.761,0,0,0-1.89-.108v-3.146h1.88V212.6Z" transform="translate(-548.483 -89.96)"/><path class="b" d="M-1.037,166.809H-6.43V150.59h5.393Z" transform="translate(37.091 -36.92)"/><path class="b" d="M70.17,312.6V296.39h5.424V312.6Z" transform="translate(-28.429 -161.631)"/><text class="c" transform="translate(57.481 154.181)"><tspan x="0" y="0">IMPERIUM</tspan></text></g></svg>