<svg xmlns="http://www.w3.org/2000/svg" width="225.148" height="86.703" viewBox="0 0 225.148 86.703"><defs><style>.a,.b{fill:#fff;}.b{font-size:9px;font-family:Montserrat-Bold, Montserrat;font-weight:700;letter-spacing:1.786em;}</style></defs><g transform="translate(-30.651 -104.03)"><path class="a" d="M439.285,230.936c-1.816,1.294-3.378,2.453-5.369,2.821-4.315.8-7.991-.921-9.747-4.905a15.48,15.48,0,0,1-.089-13,10.21,10.21,0,0,1,13.344-5.376c.543.209,1.076.444,1.8.746V201.59h7.263v31.637h-7.207Zm-.056-9.556v-4.99c0-.371,0-.666-.444-.888a5.791,5.791,0,0,0-8.184,3.931,11.869,11.869,0,0,0,.024,5.387c.6,2.615,2.442,3.858,5.169,3.525a8.381,8.381,0,0,0,2.726-.888,1.155,1.155,0,0,0,.726-1.212c-.046-1.614-.017-3.24-.017-4.865Z" transform="translate(-296.959 -71.48)"/><path class="a" d="M781.919,233.179H774.67V201.52h7.247v11.2c.966-.619,1.751-1.141,2.557-1.629a10.028,10.028,0,0,1,6.053-1.4,6.971,6.971,0,0,1,6.836,6.95c.3,5.061.067,10.13.118,15.2a2.673,2.673,0,0,1-.124,1.332h-7.076c-.277-.384-.146-.8-.149-1.194-.038-4.069,0-8.137-.1-12.208-.089-3.489-1.727-4.688-5.147-3.949-.222.047-.444.082-.648.147-2.235.666-2.315.781-2.315,3.108Z" transform="translate(-571.014 -71.426)"/><path class="a" d="M12.36,91.822V83.94H33.493v39.929h-8.27V91.822Z" transform="translate(22.477 20.09)"/><path class="a" d="M-6.5,335.028v-39.9H1.837v31.983h12.8v7.915Z" transform="translate(37.151 -144.295)"/><path class="a" d="M924.7,251.635H908.184c-.166,2.826,1.827,4.988,4.961,5.549a13.546,13.546,0,0,0,9.74-2.046,1.417,1.417,0,0,1,1.443-.291v5.343c0,.444-.313.539-.622.666a23.14,23.14,0,0,1-15.538.692c-5.485-1.727-8.31-6.73-7.451-12.787.888-6.279,5.105-10.086,11.542-10.419a17.778,17.778,0,0,1,5.07.366,8.894,8.894,0,0,1,7.238,8.071,24.394,24.394,0,0,1,.133,4.857Zm-16.647-4.317h9.4c-.235-2.977-1.5-4.273-4.169-4.344-3.159-.082-4.839,1.292-5.234,4.344Z" transform="translate(-668.965 -100.044)"/><path class="a" d="M578.869,250.374a11.791,11.791,0,0,1-.513,4.373,10.469,10.469,0,0,1-8.657,7.447,17.358,17.358,0,0,1-7.147-.16,10.555,10.555,0,0,1-8.339-9.089,16.246,16.246,0,0,1,.2-6.159,10.586,10.586,0,0,1,9.025-8.286,18.259,18.259,0,0,1,6.932.18,10.65,10.65,0,0,1,8.495,9.924C578.9,249.191,578.869,249.784,578.869,250.374Zm-7.523.175a10.942,10.942,0,0,0-.59-4.248,4.15,4.15,0,0,0-4.346-2.921,4.011,4.011,0,0,0-4.191,2.952,12.412,12.412,0,0,0-.027,8.046,4.1,4.1,0,0,0,4.089,2.963,4.208,4.208,0,0,0,4.408-2.677,9.586,9.586,0,0,0,.648-4.115Z" transform="translate(-399.187 -100.009)"/><path class="a" d="M303.213,241.559c0,3.793-.011,7.523,0,11.249a16.264,16.264,0,0,0,.2,3.536,2.853,2.853,0,0,0,2.93,2.639,8.272,8.272,0,0,0,4.581-1.034c.573-.289.508-.73.508-1.206V241.53h7.245v22.745h-7.214v-2.343c-.959.622-1.776,1.168-2.606,1.683a9.842,9.842,0,0,1-7.689,1.11c-3.108-.735-5.143-3.352-5.212-7-.1-5.36-.027-10.723-.027-16.157Z" transform="translate(-198.255 -102.56)"/><path class="a" d="M187.234,207.58v24.571h13.942v5.736H179.49V207.58Z" transform="translate(-107.634 -76.141)"/><path class="a" d="M688.375,212.6v6.353h6.805v4.883h-6.8V232.8c0,.555,0,1.11.044,1.664.222,2.442,1.642,3.551,4.08,3.085.861-.162,1.7-.425,2.646-.666v5.021c-3.456.71-6.923,1.081-10.346-.189-2.351-.87-3.362-2.79-3.583-5.156-.346-3.727-.085-7.467-.155-11.2v-1.374a27.253,27.253,0,0,0-2.9-.166v-4.827h2.886V212.6Z" transform="translate(-495.826 -80.048)"/><path class="a" d="M1.845,175.479H-6.43V150.59H1.845Z" transform="translate(37.096 -31.783)"/><path class="a" d="M70.17,321.268V296.39h8.324v24.878Z" transform="translate(-22.501 -145.258)"/><text class="b" transform="translate(71.441 175.441)"><tspan x="0" y="0">IMPERIUM</tspan></text></g></svg>